<svg xmlns="http://www.w3.org/2000/svg" viewBox="0 0 512 512" width="512" height="512">
  <!-- Background -->
  <rect width="512" height="512" rx="86" fill="#3b82f6"/>
  
  <!-- Memo pad -->
  <rect x="128" y="96" width="256" height="320" rx="20" fill="white"/>
  
  <!-- Binding holes -->
  <circle cx="192" cy="140" r="8" fill="#e5e7eb"/>
  <circle cx="320" cy="140" r="8" fill="#e5e7eb"/>
  <circle cx="192" cy="372" r="8" fill="#e5e7eb"/>
  <circle cx="320" cy="372" r="8" fill="#e5e7eb"/>
  
  <!-- Lines on memo -->
  <rect x="160" y="192" width="128" height="8" fill="#3b82f6" opacity="0.2"/>
  <rect x="160" y="224" width="192" height="8" fill="#3b82f6" opacity="0.2"/>
  <rect x="160" y="256" width="160" height="8" fill="#3b82f6" opacity="0.2"/>
  <rect x="160" y="288" width="144" height="8" fill="#3b82f6" opacity="0.2"/>
  <rect x="160" y="320" width="96" height="8" fill="#3b82f6" opacity="0.2"/>
  
  <!-- Pen -->
  <path d="M320 160l32 32-48 48-32-32z" fill="#f59e0b"/>
  <path d="M272 208l32 32-64 64-32-32z" fill="#fbbf24"/>
  <circle cx="336" cy="176" r="10" fill="#dc2626"/>
  
  <!-- Shadow effect -->
  <rect x="134" y="102" width="256" height="320" rx="20" fill="none" stroke="#000" stroke-width="2" opacity="0.1"/>
</svg>